<?xml version="1.0" standalone="no"?><!DOCTYPE svg PUBLIC "-//W3C//DTD SVG 1.1//EN" "http://www.w3.org/Graphics/SVG/1.1/DTD/svg11.dtd"><svg t="1607654547480" class="icon" viewBox="0 0 1024 1024" version="1.1" xmlns="http://www.w3.org/2000/svg" p-id="2439" xmlns:xlink="http://www.w3.org/1999/xlink" width="200" height="200"><defs><style type="text/css"></style></defs><path d="M509.627799 468.114286V1024" fill="#d4237a" p-id="2440"></path><path d="M386.273359 468.114286h18.977606v555.490347h-18.977606z" fill="#d4237a" p-id="2441"></path><path d="M405.250965 468.114286h18.977606v555.490347h-18.977606z" fill="#d4237a" p-id="2442"></path><path d="M424.228571 468.114286H443.206178v555.490347h-18.977607z" fill="#d4237a" p-id="2443"></path><path d="M443.206178 468.114286h18.977606v555.490347H443.206178z" fill="#d4237a" p-id="2444"></path><path d="M462.183784 468.114286h18.977606v555.490347h-18.977606z" fill="#d4237a" p-id="2445"></path><path d="M481.16139 468.114286h18.977606v555.490347h-18.977606z" fill="#d4237a" p-id="2446"></path><path d="M500.138996 468.114286h18.977606v555.490347h-18.977606z" fill="#d4237a" p-id="2447"></path><path d="M519.116602 468.114286h18.977606v555.490347h-18.977606z" fill="#d4237a" p-id="2448"></path><path d="M538.094208 468.114286h18.977607v555.490347H538.094208z" fill="#d4237a" p-id="2449"></path><path d="M557.071815 468.114286h18.977606v555.490347h-18.977606z" fill="#d4237a" p-id="2450"></path><path d="M576.049421 468.114286h18.977606v555.490347h-18.977606zM614.004633 468.114286h18.977606v555.490347h-18.977606z" fill="#d4237a" p-id="2451"></path><path d="M595.027027 468.114286h18.977606v555.490347h-18.977606z" fill="#d4237a" p-id="2452"></path><path d="M955.601544 168.030888l12.651738 14.233205-456.253282 417.111969L55.746718 182.264093l12.651738-14.233205 443.601544 405.646332z" fill="#d4237a" p-id="2453"></path><path d="M942.949807 154.19305l12.651737 13.837838-443.601544 405.646332L68.398456 168.030888 81.44556 154.19305l430.55444 393.389962z" fill="#d4237a" p-id="2454"></path><path d="M929.902703 139.959846l13.047104 14.233204-430.949807 393.389962L81.44556 154.19305l12.651737-14.233204L512 521.88417z" fill="#d4237a" p-id="2455"></path><path d="M917.250965 126.122008l12.651738 13.837838L512 521.88417 94.097297 139.959846l13.047105-13.837838 404.855598 370.06332z" fill="#d4237a" p-id="2456"></path><path d="M904.203861 111.888803l13.047104 14.233205-405.250965 370.06332L107.144402 126.122008l12.651737-14.233205 392.203861 358.597683z" fill="#d4237a" p-id="2457"></path><path d="M891.552124 98.050965l12.651737 13.837838-392.203861 358.597683-392.203861-358.597683 12.651737-13.837838 379.552124 346.73668z" fill="#d4237a" p-id="2458"></path><path d="M878.900386 84.213127l12.651738 13.837838-379.552124 346.73668-379.552124-346.73668 13.047105-13.837838 366.505019 334.875676z" fill="#d4237a" p-id="2459"></path><path d="M865.853282 69.979923l13.047104 14.233204-366.900386 334.875676-366.505019-334.875676 12.651737-14.233204 353.853282 323.410038z" fill="#d4237a" p-id="2460"></path><path d="M853.201544 56.142085l12.651738 13.837838-353.853282 323.410038-353.853282-323.410038 12.651738-13.837838L512 367.69112z" fill="#d4237a" p-id="2461"></path><path d="M840.15444 41.90888l13.047104 14.233205L512 367.69112 170.798456 56.142085l13.047104-14.233205 328.15444 300.083398z" fill="#d4237a" p-id="2462"></path><path d="M827.502703 28.071042l12.651737 13.837838-328.15444 300.083398-328.15444-300.083398 12.651737-13.837838L512 316.293436z" fill="#d4237a" p-id="2463"></path><path d="M801.803861 0l13.047104 13.837838-302.850965 276.756757-302.455598-276.756757L222.196139 0l289.803861 264.895753z" fill="#d4237a" p-id="2464"></path><path d="M814.850965 13.837838l12.651738 14.233204L512 316.293436 196.497297 28.071042l13.047105-14.233204 302.455598 276.756757z" fill="#d4237a" p-id="2465"></path></svg>